<svg width="19" height="19" viewBox="0 0 19 19" fill="none" xmlns="http://www.w3.org/2000/svg">
<path id="Combined Shape" fill-rule="evenodd" clip-rule="evenodd" d="M14.6287 12.4803C15.4944 11.2021 16 9.66008 16 8C16 3.58172 12.4183 0 8 0C3.58172 0 0 3.58172 0 8C0 12.4183 3.58172 16 8 16C9.72292 16 11.3186 15.4554 12.6244 14.5288L16.2769 18.1814L18.3033 16.155L14.6287 12.4803ZM8 13C10.7614 13 13 10.7614 13 8C13 5.23858 10.7614 3 8 3C5.23858 3 3 5.23858 3 8C3 10.7614 5.23858 13 8 13ZM7 5V7H5V9H7V11H9V9H11V7H9V5H7Z" fill="#25B2E7"/>
</svg>
