<svg width="19" height="16" viewBox="0 0 19 16" fill="none" xmlns="http://www.w3.org/2000/svg">
<path fill-rule="evenodd" clip-rule="evenodd" d="M0.851418 6.34192L17.0068 0.101298C17.7446 -0.234097 18.4568 0.27891 18.1751 1.40989L15.424 14.394C15.232 15.3168 14.6751 15.5375 13.9039 15.1114L9.71276 12.0101L9.63016 12.0905C8.67948 13.0163 7.8426 13.8312 7.69828 13.9726C7.69311 13.9777 7.68796 13.9827 7.68282 13.9877C7.45643 14.2094 7.26951 14.3925 6.85957 14.3925C6.43402 14.3925 6.39851 14.2664 6.31301 13.9627C6.28937 13.8787 6.2619 13.7811 6.22129 13.6689L4.67963 8.93507L0.650439 7.67557C-0.24467 7.40092 -0.251209 6.78499 0.851418 6.34192ZM14.3938 2.90721L5.31196 8.6457L6.84235 13.3447L7.14514 10.1103L14.9215 3.08332C15.2629 2.77989 14.8472 2.63184 14.3938 2.90721Z" fill="#25B2E7"/>
</svg>
