<svg width="21" height="21" viewBox="0 0 21 21" fill="none" xmlns="http://www.w3.org/2000/svg">
<path fill-rule="evenodd" clip-rule="evenodd" d="M11.4675 18.9304C12.3876 19.6296 13.5121 20.0067 14.6676 20.0038C16.6871 20.0198 18.5398 18.8853 19.4435 17.0792C20.3473 15.2732 20.1446 13.1102 18.9211 11.5035C19.3701 8.68387 18.4444 5.81949 16.4301 3.796C14.4158 1.77251 11.5557 0.833671 8.73409 1.26977C6.63291 -0.526341 3.50349 -0.403346 1.54976 1.55213C-0.403968 3.50761 -0.524168 6.63713 1.27382 8.7367C0.838671 11.5513 1.77164 14.4048 3.78554 16.4187C5.79943 18.4326 8.65288 19.3656 11.4675 18.9304ZM7.86072 14.6703C7.20478 14.4282 6.59238 14.0815 6.04732 13.6436L7.04736 12.4902C7.47682 12.8209 7.94467 13.0984 8.44074 13.3169C9.01369 13.5621 9.63093 13.6869 10.2541 13.6836C10.7207 13.7049 11.1836 13.5915 11.5875 13.3569C11.9572 13.1309 12.1763 12.7232 12.1609 12.2902C12.1693 12.019 12.0846 11.7531 11.9209 11.5368C11.7082 11.3028 11.4399 11.1263 11.1408 11.0235C10.6774 10.8466 10.2031 10.6996 9.72079 10.5834C9.05399 10.4174 8.40268 10.1943 7.77405 9.91675C7.35219 9.72944 6.99005 9.42958 6.72735 9.05005C6.45495 8.59403 6.32495 8.06705 6.354 7.53666C6.34214 6.99373 6.49307 6.45968 6.78735 6.00327C7.08508 5.54207 7.50518 5.17275 8.00073 4.93657C8.57698 4.67028 9.2061 4.53807 9.8408 4.54989C11.1262 4.53152 12.3836 4.92648 13.4276 5.67659L12.5476 6.94997C11.7417 6.37751 10.7882 6.04888 9.80079 6.00327C9.36332 5.98527 8.93144 6.10666 8.56742 6.34995C8.24457 6.57309 8.05643 6.94435 8.0674 7.33665C8.06336 7.62197 8.16283 7.89908 8.34741 8.11668C8.57157 8.34808 8.84832 8.52191 9.1541 8.62337C9.64931 8.80201 10.1547 8.95116 10.6675 9.07005C11.5544 9.26603 12.3888 9.65027 13.1142 10.1968C13.6276 10.6706 13.8955 11.3537 13.8409 12.0502C13.891 12.9034 13.5291 13.729 12.8676 14.2702C12.1 14.8434 11.1578 15.1331 10.2008 15.0903C9.40204 15.0902 8.60966 14.9479 7.86072 14.6703Z" fill="#25B2E7"/>
</svg>
