<svg width="20" height="20" viewBox="0 0 20 20" fill="none" xmlns="http://www.w3.org/2000/svg">
<path id="Fill 1" fill-rule="evenodd" clip-rule="evenodd" d="M15.2895 12.4608C15.2792 12.7963 15.1912 13.119 15.0694 13.4292C14.9643 13.6967 14.7546 13.885 14.5252 14.0523C14.2068 14.2845 13.8597 14.4615 13.4757 14.5496C13.0166 14.6549 12.5646 14.6649 12.0996 14.5119C11.3893 14.2782 10.6942 14.0109 10.0247 13.6835C9.7044 13.5269 9.40941 13.3177 9.10905 13.123C8.65446 12.8285 8.25074 12.4702 7.87857 12.0811C7.59078 11.7803 7.32549 11.4572 7.06214 11.1345C6.86431 10.892 6.66927 10.6444 6.50201 10.3809C6.2464 9.97828 5.96847 9.58974 5.75559 9.15919C5.5931 8.83055 5.45674 8.49433 5.36988 8.14195C5.31036 7.90055 5.29927 7.64736 5.26652 7.39943C5.27237 6.9372 5.37063 6.50007 5.58313 6.09486C5.68102 5.90818 5.81866 5.74094 5.94734 5.57167C6.0222 5.47322 6.11271 5.38605 6.20005 5.2976C6.45094 5.04356 6.74588 4.92096 7.11056 4.98846C7.22873 5.01033 7.35211 5.0144 7.47266 5.01091C7.62896 5.00641 7.75099 5.06922 7.81874 5.19801C7.90932 5.37017 7.98075 5.55301 8.05072 5.73494C8.24896 6.25039 8.4339 6.77107 8.6409 7.28296C8.75568 7.56679 8.68278 7.80393 8.50675 8.02106C8.34194 8.22437 8.16317 8.41722 7.98213 8.60675C7.78271 8.81554 7.76077 8.91681 7.90867 9.15997C8.07987 9.44145 8.24169 9.73074 8.43739 9.99482C8.75806 10.4276 9.10776 10.839 9.54251 11.1668C9.81719 11.3739 10.0943 11.579 10.382 11.7675C10.5538 11.88 10.7484 11.958 10.9322 12.0526C11.0244 12.1 11.1136 12.1535 11.2077 12.1968C11.263 12.2222 11.3246 12.2362 11.3846 12.2495C11.5747 12.2916 11.678 12.162 11.7852 12.0438C11.9149 11.9007 12.0434 11.7566 12.1705 11.6112C12.2768 11.4897 12.3793 11.365 12.4852 11.2433C12.5395 11.181 12.5922 11.1155 12.6553 11.0628C12.7584 10.9768 12.8795 10.9921 12.989 11.0441C13.3098 11.1967 13.6281 11.3545 13.9449 11.5152C14.2799 11.6851 14.6129 11.8589 14.9445 12.0353C15.0323 12.082 15.1123 12.1436 15.1951 12.1995C15.2896 12.2633 15.2923 12.3709 15.2895 12.4608M19.9742 9.14414C19.9163 8.71302 19.8788 8.27807 19.797 7.85153C19.7205 7.45227 19.614 7.05659 19.4896 6.66917C19.3766 6.31718 19.2327 5.97364 19.0818 5.63542C18.9758 5.39782 18.8386 5.17352 18.7093 4.94667C18.5921 4.74102 18.4778 4.53231 18.3427 4.33838C18.0376 3.90075 17.7161 3.47597 17.3438 3.08973C16.9389 2.66972 16.5146 2.2734 16.0364 1.93671C15.7801 1.75627 15.5287 1.56739 15.2612 1.40474C14.9789 1.23302 14.687 1.07322 14.3867 0.935228C14.0458 0.778599 13.6951 0.640257 13.3409 0.515821C13.0454 0.412018 12.7424 0.322973 12.4362 0.257735C12.0457 0.174543 11.6497 0.114204 11.2542 0.0578705C10.653 -0.0277086 10.0458 -0.000330741 9.44412 0.0263621C8.98213 0.0468281 8.52309 0.153081 8.06503 0.233969C7.57786 0.319963 7.11366 0.48506 6.65037 0.655596C6.06379 0.871526 5.5121 1.15375 4.98518 1.48411C4.69366 1.66689 4.40471 1.85719 4.13455 2.0692C3.85311 2.29007 3.58387 2.52943 3.33081 2.782C3.03595 3.07632 2.74869 3.38113 2.48645 3.70406C2.09767 4.18281 1.77004 4.70341 1.47959 5.24868C1.25556 5.66927 1.06891 6.1048 0.909495 6.55063C0.740988 7.0218 0.609597 7.50666 0.53177 8.00145C0.472731 8.37679 0.431393 8.75607 0.406084 9.13515C0.381988 9.49598 0.36738 9.86001 0.387004 10.2206C0.419167 10.8125 0.484998 11.4011 0.63292 11.9798C0.757978 12.4692 0.90544 12.949 1.09574 13.4173C1.27744 13.8644 1.48992 14.2947 1.74114 14.7072C1.76649 14.7488 1.76812 14.8204 1.75199 14.8686C1.62375 15.2524 1.48735 15.6336 1.35575 16.0164C1.20971 16.4413 1.06473 16.8665 0.921741 17.2924C0.740632 17.832 0.564205 18.3731 0.381507 18.9121C0.258163 19.276 0.127441 19.6374 0 20H0.125288C0.330661 19.9237 0.534779 19.8437 0.741824 19.7722C0.898105 19.7182 1.0584 19.6757 1.21639 19.6266C1.62135 19.5005 2.02681 19.376 2.43055 19.2463C2.77862 19.1345 3.12355 19.0131 3.47185 18.902C3.81328 18.7931 4.15761 18.6932 4.49987 18.5868C4.78971 18.4968 5.07778 18.4009 5.36838 18.3133C5.41195 18.3002 5.47296 18.3034 5.51254 18.3241C5.99925 18.5795 6.49773 18.8099 7.02294 18.9733C7.44365 19.1042 7.87042 19.219 8.29985 19.318C8.56407 19.379 8.83858 19.3954 9.10805 19.4348C9.57997 19.504 10.0558 19.5146 10.5296 19.4913C10.9424 19.471 11.3559 19.4253 11.7639 19.3591C12.1747 19.2924 12.5807 19.1929 12.9856 19.095C13.1593 19.0531 13.3264 18.9822 13.4942 18.9185C13.7423 18.8243 13.996 18.74 14.2336 18.6238C14.5958 18.4467 14.9498 18.2522 15.3003 18.0529C15.5158 17.9304 15.7278 17.7976 15.9243 17.6474C16.2334 17.411 16.5311 17.1597 16.8281 16.9083C17.2174 16.5788 17.5559 16.2005 17.8636 15.7963C18.0734 15.5208 18.2716 15.2363 18.466 14.9497C18.5969 14.7567 18.729 14.5613 18.8306 14.3525C19.0152 13.9733 19.1787 13.5838 19.3486 13.1976C19.3998 13.0813 19.452 12.9643 19.4886 12.8431C19.6342 12.3608 19.7849 11.8792 19.848 11.377C19.892 11.0269 19.932 10.6763 19.9751 10.3262C19.9773 10.3081 19.9914 10.2915 20 10.2743V9.2167C19.9912 9.19254 19.9776 9.16902 19.9742 9.14414" fill="#25B2E7"/>
</svg>
